<?xml version="1.0" encoding="utf-8"?>
<!-- Generator: Adobe Illustrator 16.0.0, SVG Export Plug-In . SVG Version: 6.00 Build 0)  -->
<!DOCTYPE svg PUBLIC "-//W3C//DTD SVG 1.1//EN" "http://www.w3.org/Graphics/SVG/1.1/DTD/svg11.dtd">
<svg version="1.1" id="Capa_1" xmlns="http://www.w3.org/2000/svg" xmlns:xlink="http://www.w3.org/1999/xlink" x="0px" y="0px"
	 width="64px" height="61px" viewBox="32.663 31.42 64 61" enable-background="new 32.663 31.42 64 61" xml:space="preserve">
<g id="Chair" display="none">
	<path display="inline" fill="#010101" d="M40.81,54.22h-2.028c0-13.472,11.502-24.431,25.642-24.431v2.028
		C51.403,31.817,40.81,41.867,40.81,54.22z"/>
	<path display="inline" fill="#010101" d="M90.616,54.22h-2.029c0-12.353-10.84-22.403-24.163-22.403v-2.028
		C78.866,29.789,90.616,40.749,90.616,54.22z"/>
	<path display="inline" fill="#010101" d="M89.6,55.234H39.796c-0.56,0-1.014-0.454-1.014-1.014c0-0.56,0.454-1.014,1.014-1.014
		H89.6c0.561,0,1.016,0.454,1.016,1.014C90.616,54.78,90.161,55.234,89.6,55.234z"/>
	<rect x="63.814" y="53.863" display="inline" fill="#010101" width="2.028" height="21.862"/>
	<rect x="63.814" y="83.378" display="inline" fill="#010101" width="2.028" height="4.386"/>
	<path display="inline" fill="#010101" d="M93.491,81.04H50.503c-0.374,0-0.735-0.14-1.011-0.392L34.651,67.107l2.022-2.217
		L51.085,78.04h42.406V81.04z"/>
	<path display="inline" fill="#010101" d="M36.557,87.781c-0.168,0-0.339-0.042-0.496-0.131c-0.488-0.274-0.662-0.894-0.387-1.381
		l7.041-12.525c0.274-0.488,0.892-0.663,1.381-0.387c0.488,0.273,0.662,0.893,0.387,1.381l-7.041,12.525
		C37.256,87.595,36.911,87.781,36.557,87.781z"/>
	<path display="inline" fill="#010101" d="M92.711,87.781c-0.392,0-0.764-0.227-0.931-0.606l-3.239-7.362
		c-0.226-0.514,0.008-1.111,0.521-1.338c0.516-0.228,1.111,0.01,1.337,0.521l3.239,7.363c0.227,0.513-0.008,1.11-0.521,1.336
		C92.986,87.754,92.847,87.781,92.711,87.781z"/>
	<path display="inline" fill="#010101" d="M50.335,87.781c-0.148,0-0.299-0.032-0.441-0.102c-0.504-0.244-0.715-0.852-0.471-1.355
		l2.943-6.078c0.245-0.504,0.853-0.717,1.355-0.471c0.504,0.244,0.715,0.851,0.471,1.354l-2.943,6.078
		C51.073,87.57,50.711,87.781,50.335,87.781z"/>
</g>
<path fill="#FFFFFF" d="M60.787,91.871L60.787,91.871c-1.345,0-2.44-1.094-2.44-2.439v-8.566c0-0.242-0.204-0.445-0.445-0.447
	l-21.976-0.119c-1.339-0.008-2.436-1.104-2.443-2.441l-0.219-38.509c-0.003-0.651,0.248-1.265,0.708-1.728s1.072-0.718,1.723-0.718
	h6.921c0.238,0,0.44-0.202,0.44-0.44v-2.054c0-1.345,1.095-2.44,2.44-2.44h48.125c1.347,0,2.44,1.095,2.44,2.44V89.43
	c0,1.346-1.095,2.439-2.44,2.439L60.787,91.871z M45.497,33.967c-0.238,0-0.44,0.202-0.44,0.44v2.054c0,1.345-1.095,2.44-2.44,2.44
	h-6.921c-0.155,0-0.258,0.08-0.305,0.128c-0.048,0.048-0.127,0.151-0.126,0.307l0.219,38.507c0.001,0.246,0.209,0.453,0.453,0.455
	l21.976,0.117c1.342,0.008,2.435,1.105,2.435,2.449v8.566c0,0.238,0.202,0.439,0.44,0.439l32.836-0.002
	c0.238,0,0.439-0.203,0.439-0.439V34.407c0-0.238-0.201-0.44-0.439-0.44H45.497z"/>
<rect x="72.539" y="41.313" fill="#FFFFFF" width="22.523" height="2"/>
<rect x="72.494" y="41.298" fill="#FFFFFF" width="2" height="19.92"/>
<rect x="73.494" y="60.218" fill="#FFFFFF" width="3.438" height="2"/>
<rect x="82.083" y="60.218" fill="#FFFFFF" width="12.979" height="2"/>
<rect x="69.749" y="60.081" transform="matrix(-0.7072 -0.707 0.707 -0.7072 75.5659 159.2156)" fill="#FFFFFF" width="2.001" height="7.76"/>
<rect x="58.347" y="59.896" fill="#FFFFFF" width="2" height="23.409"/>
<rect x="58.347" y="49.32" fill="#FFFFFF" width="2" height="4.697"/>
<rect x="44.057" y="52.021" fill="#FFFFFF" width="16.263" height="2"/>
<rect x="43.057" y="36.595" fill="#FFFFFF" width="2" height="25"/>
<rect x="34.256" y="59.689" fill="#FFFFFF" width="10.767" height="2"/>
<rect x="35.009" y="40.972" fill="#FFFFFF" width="9.261" height="2"/>
<rect x="35.009" y="44.447" fill="#FFFFFF" width="9.261" height="2"/>
<rect x="35.009" y="52.068" fill="#FFFFFF" width="9.261" height="2"/>
<rect x="35.009" y="48.258" fill="#FFFFFF" width="9.261" height="2"/>
<rect x="35.009" y="55.879" fill="#FFFFFF" width="9.261" height="2"/>
<g id="TV" display="none">
	<g display="inline">
		<path fill="none" stroke="#010101" stroke-width="2" stroke-miterlimit="10" d="M81.377,71.324c0,0.792-0.647,1.439-1.439,1.439
			H48.305c-0.792,0-1.44-0.647-1.44-1.439v-23.2c0-0.792,0.648-1.44,1.44-1.44h31.633c0.792,0,1.439,0.648,1.439,1.44V71.324z"/>
	</g>
	<g display="inline">
		<path fill="none" stroke="#010101" stroke-width="2" stroke-miterlimit="10" d="M94.78,71.324c0,0.792-0.648,1.439-1.439,1.439
			h-5.516c-0.793,0-1.441-0.647-1.441-1.439V52.833c0-0.792,0.648-1.44,1.441-1.44h5.516c0.791,0,1.439,0.648,1.439,1.44V71.324z"/>
	</g>
	<ellipse display="inline" fill="#010101" cx="90.583" cy="69.001" rx="2.092" ry="2.282"/>
	<ellipse display="inline" fill="#010101" cx="90.583" cy="63.254" rx="1.078" ry="1.176"/>
	<g display="inline">
		<path fill="none" stroke="#010101" stroke-width="2" stroke-miterlimit="10" d="M41.86,71.323c0,0.792-0.648,1.44-1.44,1.44
			h-5.516c-0.792,0-1.44-0.648-1.44-1.44V52.832c0-0.792,0.648-1.44,1.44-1.44h5.516c0.792,0,1.44,0.648,1.44,1.44V71.323z"/>
	</g>
	<ellipse display="inline" fill="#010101" cx="37.662" cy="69" rx="2.092" ry="2.282"/>
	<ellipse display="inline" fill="#010101" cx="37.664" cy="63.253" rx="1.078" ry="1.176"/>
	
		<line display="inline" fill="none" stroke="#010101" stroke-width="2" stroke-miterlimit="10" x1="49.114" y1="77.193" x2="79.129" y2="77.193"/>
	
		<line display="inline" fill="none" stroke="#010101" stroke-width="2" stroke-miterlimit="10" x1="64.122" y1="72.764" x2="64.122" y2="77.193"/>
</g>
</svg>
