<?xml version="1.0" encoding="utf-8"?>
<!-- Generator: Adobe Illustrator 16.0.0, SVG Export Plug-In . SVG Version: 6.00 Build 0)  -->
<!DOCTYPE svg PUBLIC "-//W3C//DTD SVG 1.1//EN" "http://www.w3.org/Graphics/SVG/1.1/DTD/svg11.dtd">
<svg version="1.1" xmlns="http://www.w3.org/2000/svg" xmlns:xlink="http://www.w3.org/1999/xlink" x="0px" y="0px" width="60px"
	 height="56px" viewBox="0 0 60 56" enable-background="new 0 0 60 56" xml:space="preserve">
<g id="Layer_1" xmlns:sketch="http://www.bohemiancoding.com/sketch/ns">
	<path fill="#474747" d="M31.784,18.725l-2.261,0.679L19.311,3.824c-0.342-0.522-0.197-1.223,0.326-1.566
		c0.522-0.342,1.223-0.196,1.566,0.326L31.784,18.725z M24.742,28.062L4.336,18.576c-0.566-0.264-1.239-0.018-1.502,0.549
		c-0.264,0.566-0.018,1.239,0.549,1.501l20.406,9.487c0.116,0.054,0.236,0.079,0.356,0.092l0.939-1.895
		C24.989,28.21,24.875,28.124,24.742,28.062z M4.114,42.035c-0.621,0.067-1.069,0.626-1.001,1.247
		c0.062,0.58,0.553,1.009,1.123,1.009c0.041,0,0.082-0.002,0.124-0.007l17.339-1.885c0.105-0.011,0.204-0.041,0.297-0.079
		l-1.844-2.027L4.114,42.035z M42.872,1.108C42.86,0.483,42.349-0.006,41.72,0c-0.625,0.013-1.121,0.529-1.108,1.153l0.297,14.764
		c0,0.024,0.007,0.045,0.009,0.068l2.241-0.673L42.872,1.108z M34.335,8.313c-0.197-0.593-0.837-0.915-1.431-0.717
		c-0.593,0.196-0.913,0.836-0.716,1.429l2.891,8.711l2.167-0.65L34.335,8.313z M20.214,17.214c-0.485-0.394-1.197-0.318-1.59,0.167
		c-0.394,0.486-0.319,1.197,0.167,1.591l7.523,6.093c0.091,0.073,0.191,0.128,0.294,0.168l1.004-2.027L20.214,17.214z
		 M22.023,33.621l-8.776-1.193c-0.62-0.084-1.189,0.35-1.273,0.968c-0.084,0.619,0.349,1.188,0.968,1.273l8.426,1.146l1.025-2.071
		C22.28,33.684,22.158,33.639,22.023,33.621z M21.618,46.363l-11.152,3.832c-0.591,0.202-0.905,0.847-0.702,1.436
		c0.162,0.47,0.6,0.765,1.07,0.765c0.122,0,0.246-0.02,0.368-0.062l10.094-3.469l0.972-2.527
		C22.06,46.284,21.835,46.288,21.618,46.363z M50.975,5.174c0.046-0.622-0.421-1.165-1.043-1.213
		c-0.629-0.043-1.166,0.42-1.213,1.043l-0.666,8.84l2.321-0.696L50.975,5.174z M52.246,25.882l3.231,3.639L25.345,55.693
		l-3.549-1.979l4.56-12.128l-4.097-2.597l0.005-0.021l9.147-17.28l25.958-7.583l0.055-0.055l0.027,0.031l0.01-0.003l-0.006,0.007
		L60,17.034l-9.215,9.044l1.474-0.21L52.246,25.882z M48.149,27.643l-6.911,1.445l11.121-12.062L32.507,23.12l-6.722,12.565
		l5.088-1.759l-6,15.925L48.149,27.643z"/>
</g>
<g id="Layer_2">
</g>
</svg>
