<svg width="61" height="61" viewBox="0 0 61 61" xmlns="http://www.w3.org/2000/svg" xmlns:sketch="http://www.bohemiancoding.com/sketch/ns"><title>Remote Icon</title><g sketch:type="MSShapeGroup" stroke-width="2" stroke="#474747" fill="none"><path d="M5.362 55.638c-5.489-5.489-5.489-14.426 0-20.043l15.702-15.702c5.489-5.489 14.426-5.489 20.043 0 5.489 5.489 5.489 14.426 0 20.043l-15.702 15.702c-5.489 5.489-14.426 5.489-20.043 0zM25.915 25.766l9.319 9.319m0-9.319l-9.319 9.319M16.213 43l1.787 1.787m-7.787 4.213l1.787 1.787m4.468-1.276l1.787 1.787m-8.553-8.553l1.787 1.787"/><path d="M33.447 9.809c9.83 0 17.745 7.915 17.745 17.745m-17.745-26.554c14.681 0 26.553 11.872 26.553 26.553"/></g></svg>