<svg width="60" height="44" viewBox="0 0 60 44" xmlns="http://www.w3.org/2000/svg" xmlns:sketch="http://www.bohemiancoding.com/sketch/ns"><title>wifi</title><desc>Created with Sketch.</desc><g sketch:type="MSShapeGroup" fill="#474747"><path d="M56.523 15.798c-7.048-7.048-16.419-10.929-26.385-10.929-9.967 0-19.338 3.882-26.386 10.929l-3.124-3.124c7.882-7.883 18.362-12.223 29.51-12.223 11.147 0 21.627 4.341 29.509 12.223l-3.124 3.124zM38.569 33.26c-4.65-4.65-12.214-4.648-16.864 0l-3.124-3.124c6.372-6.371 16.74-6.372 23.111 0l-3.124 3.124z" id="Shape"/><ellipse cx="30.138" cy="40.218" rx="3.034" ry="3.034"/><path d="M46.985 24.844c-9.289-9.288-24.404-9.289-33.695 0l-3.124-3.124c11.011-11.011 28.931-11.011 39.942 0l-3.124 3.124z"/></g></svg>