<svg width="48" height="54" viewBox="0 0 48 54" xmlns="http://www.w3.org/2000/svg" xmlns:sketch="http://www.bohemiancoding.com/sketch/ns"><title>Lock Icon</title><path d="M39.813 54h-32.124c-4.161 0-7.546-3.385-7.546-7.546v-21.355c0-4.161 3.385-7.546 7.546-7.546h32.121c4.161 0 7.546 3.385 7.546 7.546v21.355c.001 2.008-.785 3.903-2.214 5.331-1.429 1.429-3.322 2.215-5.33 2.215zm-32.124-33.948c-2.782 0-5.046 2.264-5.046 5.046v21.355c0 2.782 2.264 5.046 5.046 5.046h32.124c2.782 0 5.046-2.265 5.046-5.046l-.002-21.355c0-2.782-2.265-5.046-5.046-5.046h-32.121zm29.396-1.25v-2.967c0-7.353-5.981-13.335-13.335-13.335-7.352 0-13.335 5.982-13.335 13.335v2.967c0 .69-.56 1.25-1.25 1.25s-1.25-.56-1.25-1.25v-2.967c0-8.731 7.104-15.835 15.835-15.835 8.731 0 15.835 7.104 15.835 15.835v2.967c0 .69-.559 1.25-1.25 1.25s-1.25-.56-1.25-1.25zm-8.406 14.754c0-2.724-2.209-4.929-4.93-4.929-2.723 0-4.926 2.207-4.926 4.929 0 2.07 1.28 3.836 3.091 4.565v7.801h3.672v-7.801c1.811-.729 3.093-2.495 3.093-4.565z" sketch:type="MSShapeGroup" fill="#474747"/></svg>