<?xml version="1.0" encoding="utf-8"?>
<!-- Generator: Adobe Illustrator 16.0.0, SVG Export Plug-In . SVG Version: 6.00 Build 0)  -->
<!DOCTYPE svg PUBLIC "-//W3C//DTD SVG 1.1//EN" "http://www.w3.org/Graphics/SVG/1.1/DTD/svg11.dtd">
<svg version="1.1" id="Layer_1" xmlns:sketch="http://www.bohemiancoding.com/sketch/ns"
	 xmlns="http://www.w3.org/2000/svg" xmlns:xlink="http://www.w3.org/1999/xlink" x="0px" y="0px" width="60px" height="56px"
	 viewBox="0 0 60 56" enable-background="new 0 0 60 56" xml:space="preserve">
<g>
	<path fill="#474747" d="M59.356,21.376c-0.531-0.621-1.337-0.978-2.215-0.978l-5.309,0.022l-0.694-5.266l-5.154,0.023
		c-0.058-0.536-0.239-1.76-0.739-2.765c-0.582-1.168-2.515-1.379-3.318-1.416l-21.422-0.096l-0.068,0.009
		c-0.448,0.058-1.448,0.039-1.837-0.27c-0.071-0.057-0.116-0.115-0.129-0.246l-0.012-0.116l-0.745-2.148
		c-0.208-1.289-1.333-2.613-3.107-2.613L3.683,5.712c-1.024,0-2.055,0.498-2.692,1.301C0.414,7.74,0.215,8.651,0.427,9.58
		l7.918,39.999c-0.069,0.753,0.151,1.467,0.63,2.028c0.531,0.619,1.336,0.977,2.21,0.977v-0.007
		c0.042,0.002,0.084,0.007,0.125,0.007h40.727c1.683,0,3.2-1.267,3.453-2.87l4.472-26.112
		C60.093,22.775,59.878,21.985,59.356,21.376z M49.776,20.43l-33.053,0.139c-1.681,0-3.198,1.267-3.451,2.859L10.1,40.665
		L8.973,17.383l40.377-0.181L49.776,20.43z M2.417,9.133C2.34,8.802,2.396,8.524,2.589,8.28C2.836,7.969,3.285,7.751,3.7,7.751
		l10.925-0.193c0.67,0,1.034,0.544,1.079,0.93L15.717,8.6l0.742,2.139c0.094,0.605,0.395,1.123,0.875,1.502
		c1.105,0.873,2.866,0.746,3.29,0.7l21.227,0.095c0.63,0.033,1.374,0.198,1.598,0.35c0.285,0.603,0.421,1.352,0.48,1.801
		L6.832,15.353l1.031,21.283L2.425,9.167L2.417,9.133z M57.949,23.271l-4.471,26.11c-0.098,0.619-0.771,1.162-1.44,1.162H11.312
		c-0.28,0-0.515-0.094-0.659-0.263c-0.129-0.151-0.177-0.352-0.146-0.555l4.776-25.954c0.098-0.62,0.771-1.163,1.444-1.163
		l40.418-0.169c0.281,0,0.516,0.093,0.66,0.262C57.935,22.852,57.983,23.053,57.949,23.271z"/>
	<polygon fill="#474747" points="31.325,34.344 16.999,41.481 25.518,41.226 11.855,49.396 43.515,40.812 35.998,40.373 
		51.091,32.519 43.754,32.258 56.689,23.552 23.389,33.705 	"/>
</g>
</svg>
