<?xml version="1.0" encoding="utf-8"?>
<!-- Generator: Adobe Illustrator 16.0.0, SVG Export Plug-In . SVG Version: 6.00 Build 0)  -->
<!DOCTYPE svg PUBLIC "-//W3C//DTD SVG 1.1//EN" "http://www.w3.org/Graphics/SVG/1.1/DTD/svg11.dtd">
<svg version="1.1" xmlns="http://www.w3.org/2000/svg" xmlns:xlink="http://www.w3.org/1999/xlink" x="0px" y="0px" width="60px"
	 height="56px" viewBox="0 0 60 56" enable-background="new 0 0 60 56" xml:space="preserve">
<g id="Layer_1" xmlns:sketch="http://www.bohemiancoding.com/sketch/ns">
	<path fill="none" d="M207.223,0.404c0.263,1.179,0.604,2.354,1.018,3.495l-0.077,0.028c2.922,3.142,5.302,6.786,6.994,10.782
		c0.394,0.391,0.795,0.775,1.207,1.142l-0.525,0.59c0.338,0.929,0.639,1.875,0.9,2.836c0.37,0.28,0.737,0.563,1.119,0.828
		l1.38-1.994c0.998,0.69,2.05,1.327,3.127,1.892l-1.127,2.149c1.162,0.613,2.363,1.158,3.6,1.628l0.86-2.28
		c1.138,0.429,2.312,0.792,3.492,1.078l-0.577,2.383c1.271,0.312,2.573,0.54,3.895,0.694l0.278-2.437
		c1.122,0.129,2.264,0.194,3.393,0.194l0.252-0.001l0.026,2.459c0.723-0.006,1.451-0.027,2.173-0.081
		c0.596-0.044,1.186-0.108,1.772-0.184l-0.32-2.448c1.206-0.158,2.41-0.392,3.58-0.696l0.623,2.393
		c1.285-0.331,2.542-0.737,3.763-1.223l-0.924-2.307c1.127-0.451,2.233-0.978,3.29-1.565l1.211,2.178
		c1.153-0.639,2.264-1.354,3.328-2.138l-1.479-2.007c0.974-0.717,1.911-1.505,2.786-2.34l1.726,1.807
		c0.787-0.752,1.541-1.546,2.254-2.387c0.146-0.173,0.283-0.352,0.425-0.527l-1.938-1.568c0.764-0.944,1.473-1.943,2.106-2.97
		l2.133,1.317c0.699-1.129,1.312-2.299,1.854-3.499l-2.283-1.032c0.496-1.096,0.926-2.241,1.277-3.402l2.396,0.725
		c0.381-1.263,0.683-2.551,0.896-3.859l-2.468-0.41c0.196-1.185,0.317-2.401,0.36-3.618l2.486,0.087
		c0.043-1.275,0.016-2.561-0.101-3.854c-0.003-0.035-0.009-0.068-0.012-0.103l-2.48,0.229c-0.111-1.206-0.301-2.417-0.562-3.601
		l2.417-0.535c-0.292-1.297-0.665-2.563-1.113-3.795l-2.316,0.832c-0.41-1.141-0.896-2.265-1.446-3.344l2.185-1.113
		c-0.604-1.174-1.285-2.304-2.026-3.39l-2.01,1.366c-0.684-1.006-1.436-1.978-2.234-2.888l1.82-1.596
		c-0.87-0.989-1.797-1.928-2.78-2.805l-1.611,1.807c-0.91-0.812-1.876-1.574-2.871-2.264l1.382-1.991
		c-1.079-0.751-2.208-1.436-3.375-2.054l-1.131,2.146c-1.078-0.568-2.199-1.074-3.332-1.504l0.864-2.278
		c-1.226-0.469-2.484-0.868-3.771-1.186l-0.582,2.38c-1.179-0.289-2.389-0.506-3.596-0.647l0.284-2.436
		c-1.239-0.147-2.495-0.231-3.768-0.231c-0.06,0-0.12,0.006-0.18,0.007l0.015,2.46c-0.671,0.004-1.354,0.031-2.027,0.082
		c-0.543,0.041-1.083,0.096-1.617,0.165l-0.316-2.449c-1.32,0.168-2.615,0.421-3.885,0.745l0.617,2.394
		c-1.173,0.302-2.338,0.683-3.463,1.13l-0.92-2.311c-1.23,0.486-2.425,1.051-3.579,1.688l1.208,2.181
		c-1.06,0.587-2.09,1.247-3.063,1.961l-1.478-2.013c-1.061,0.778-2.075,1.623-3.037,2.538l1.724,1.811
		c-0.877,0.834-1.708,1.733-2.472,2.672l-1.937-1.575c-0.841,1.032-1.616,2.104-2.308,3.217l2.135,1.321
		c-0.638,1.03-1.214,2.11-1.712,3.211l-2.283-1.035c-0.547,1.206-1.016,2.443-1.399,3.707l2.399,0.729
		c-0.353,1.159-0.632,2.351-0.831,3.542l-2.47-0.413c-0.214,1.296-0.341,2.611-0.387,3.939l2.49,0.09
		c-0.013,0.345-0.019,0.691-0.019,1.039c0,0.863,0.04,1.739,0.118,2.603l-2.477,0.295c0.118,1.257,0.322,2.489,0.587,3.699
		c0.081,0.068,0.16,0.139,0.24,0.208L207.223,0.404z"/>
	<path fill="#A6A8AB" d="M208.818,18.956l0.096-0.034c-0.062-0.067-0.127-0.134-0.188-0.202
		C208.754,18.799,208.79,18.876,208.818,18.956z"/>
	<path fill="#A6A8AB" d="M204.994,0.9c-0.08-0.069-0.159-0.14-0.24-0.208c0.019,0.083,0.03,0.168,0.049,0.251L204.994,0.9z"/>
</g>
<g id="Layer_3">
	<path fill="none" d="M46.435,97.813c1.119-0.185,2.001-0.679,2.648-1.484c0.566-0.7,0.832-1.543,0.797-2.524
		c-0.031-0.979-0.579-2.292-1.645-3.938l-5.75,7.152C43.998,97.735,45.313,97.997,46.435,97.813z"/>
	<path fill="none" d="M37.272,103.5h1.513c-0.324-0.214-0.647-0.425-0.98-0.662L37.272,103.5z"/>
	<path fill="none" d="M56.824,72.496c-1.22-0.436-2.205-0.571-2.955-0.399c-0.752,0.166-1.379,0.565-1.882,1.192
		c-0.528,0.656-0.798,1.377-0.806,2.16c-0.002,0.783,0.338,1.709,1.037,2.777L56.824,72.496z"/>
	<path fill="#474747" d="M37.445,6.409l-2.295,0.78l-1.012-3.06l2.293-0.78L37.445,6.409z M40.348,17.035l-2.246,0.763l1.012,3.06
		l2.246-0.763L40.348,17.035z M29.226,13.957l0.724,2.184l3.016-1.027l-0.723-2.183L29.226,13.957z M43.07,9.565l0.672,2.04
		l3.016-1.025l-0.674-2.042L43.07,9.565z M44.377,17.047l-4.424-4.181c0.131-0.451,0.133-0.949-0.027-1.433
		c-0.051-0.149-0.113-0.288-0.186-0.42l1.521-8.892l-4.113,7.775c-0.037,0.01-0.076,0.02-0.113,0.032
		c-1.188,0.403-1.816,1.733-1.408,2.969s1.703,1.91,2.889,1.506c0.152-0.052,0.295-0.117,0.426-0.198l-0.119,0.158L44.377,17.047z
		 M59.371,45.843c0,5.143-14.775,7.834-29.371,7.834S0.629,50.985,0.629,45.843c0-3.691,7.613-6.118,17.307-7.194
		c0.279-1.052,0.705-2.06,1.268-3.004C13.177,35.228,8.17,30.448,7.624,24.417c-0.292-3.228,0.698-6.362,2.788-8.827
		c2.117-2.499,5.105-4.009,8.409-4.254c0.312-0.023,0.626-0.035,0.937-0.035c2.217,0,4.32,0.594,6.148,1.633
		c-0.239-3.163,0.75-6.227,2.801-8.646c2.117-2.498,5.104-4.008,8.41-4.253C37.426,0.013,37.742,0,38.053,0
		c6.4,0,11.863,4.947,12.434,11.263c0.291,3.228-0.699,6.362-2.789,8.826c-2.119,2.497-5.105,4.007-8.408,4.253
		c-0.312,0.022-0.629,0.035-0.939,0.035c-2.215,0-4.316-0.593-6.143-1.631c0.186,2.487-0.389,4.91-1.64,7.008
		c5.21,0.359,9.661,3.982,11.124,8.856C51.562,39.663,59.371,42.105,59.371,45.843z M27.557,11.65l0.836,0.029
		c-0.004,0.117-0.006,0.232-0.006,0.349c0,0.29,0.014,0.584,0.039,0.874l-0.832,0.1c0.04,0.421,0.109,0.835,0.197,1.241
		c0.007,0.029,0.01,0.057,0.017,0.084l0.065-0.014l0.748-0.167c0.088,0.396,0.202,0.79,0.341,1.173l-0.026,0.01l-0.75,0.271
		c0.151,0.418,0.328,0.824,0.531,1.216l0.732-0.376c0.185,0.363,0.395,0.717,0.624,1.053l-0.675,0.46
		c0.249,0.364,0.522,0.713,0.814,1.044l0.609-0.537c0.148,0.167,0.303,0.329,0.461,0.488c0.133,0.13,0.268,0.259,0.406,0.382
		l-0.178,0.199l-0.363,0.41c0.213,0.19,0.438,0.368,0.666,0.542c0.125,0.094,0.248,0.189,0.377,0.278l0.463-0.67
		c0.334,0.232,0.688,0.446,1.049,0.635l-0.379,0.722c0.391,0.206,0.793,0.389,1.207,0.546l0.291-0.765
		c0.383,0.144,0.775,0.266,1.172,0.361l-0.193,0.799c0.426,0.105,0.863,0.182,1.307,0.233l0.094-0.818
		c0.377,0.044,0.76,0.065,1.139,0.065h0.086l0.008,0.826c0.244-0.002,0.486-0.009,0.729-0.027c0.201-0.015,0.398-0.038,0.596-0.062
		l-0.107-0.822c0.404-0.053,0.809-0.131,1.201-0.234l0.209,0.804c0.432-0.111,0.855-0.248,1.264-0.411l-0.311-0.774
		c0.379-0.152,0.75-0.328,1.105-0.525l0.406,0.731c0.387-0.214,0.76-0.455,1.117-0.717l-0.498-0.675
		c0.326-0.24,0.643-0.505,0.936-0.785l0.58,0.607c0.264-0.251,0.516-0.519,0.756-0.801c0.051-0.058,0.096-0.118,0.143-0.177
		l-0.65-0.527c0.256-0.316,0.494-0.651,0.707-0.996l0.717,0.442c0.234-0.379,0.441-0.772,0.621-1.174l-0.766-0.347
		c0.166-0.368,0.311-0.752,0.43-1.142l0.803,0.244c0.129-0.424,0.232-0.857,0.303-1.296l-0.83-0.138
		c0.066-0.396,0.107-0.805,0.121-1.214l0.836,0.029c0.014-0.429,0.004-0.859-0.035-1.293c0-0.012-0.002-0.023-0.004-0.035
		l-0.832,0.077c-0.037-0.404-0.102-0.811-0.188-1.209l0.811-0.18c-0.098-0.435-0.223-0.86-0.375-1.274l-0.775,0.28
		c-0.139-0.382-0.303-0.761-0.486-1.123l0.732-0.374c-0.201-0.394-0.43-0.773-0.68-1.138l-0.674,0.458
		c-0.229-0.337-0.482-0.664-0.75-0.969l0.611-0.536c-0.293-0.332-0.604-0.647-0.934-0.941L44.73,5.058
		c-0.307-0.272-0.631-0.529-0.965-0.759l0.463-0.669c-0.361-0.252-0.738-0.481-1.131-0.689l-0.381,0.721
		c-0.361-0.191-0.738-0.36-1.119-0.505l0.293-0.765c-0.412-0.158-0.834-0.291-1.268-0.398l-0.195,0.799
		c-0.396-0.098-0.801-0.17-1.207-0.217l0.096-0.818c-0.416-0.049-0.838-0.078-1.264-0.078c-0.021,0-0.041,0.002-0.061,0.003
		l0.004,0.825c-0.227,0.001-0.455,0.011-0.68,0.028c-0.182,0.014-0.365,0.032-0.543,0.056l-0.107-0.823
		c-0.443,0.057-0.877,0.142-1.305,0.25l0.209,0.804c-0.395,0.102-0.785,0.229-1.164,0.379l-0.309-0.776
		c-0.414,0.164-0.814,0.354-1.201,0.566l0.406,0.732c-0.355,0.198-0.701,0.419-1.027,0.659l-0.498-0.675
		c-0.355,0.262-0.695,0.545-1.02,0.852l0.58,0.608c-0.297,0.279-0.574,0.581-0.83,0.896l-0.65-0.529
		c-0.282,0.346-0.543,0.706-0.774,1.08l0.718,0.443c-0.215,0.346-0.408,0.708-0.575,1.078l-0.767-0.347
		c-0.185,0.404-0.342,0.82-0.47,1.245l0.804,0.245c-0.117,0.389-0.211,0.789-0.277,1.188l-0.828-0.138
		C27.614,10.763,27.572,11.204,27.557,11.65z M11.453,16.98l0.439,0.123l-0.328-0.267C11.525,16.883,11.49,16.931,11.453,16.98z
		 M20.047,33.171h0.084l0.008,0.824c0.084,0,0.168-0.005,0.253-0.01c1.931-2.266,4.581-3.711,7.534-4.133l-0.312-0.252
		c0.257-0.317,0.495-0.652,0.708-0.997l0.715,0.443c0.235-0.38,0.441-0.772,0.623-1.176l-0.767-0.346
		c0.166-0.367,0.312-0.753,0.429-1.143l0.805,0.244c0.129-0.424,0.229-0.856,0.302-1.295L29.6,25.192
		c0.066-0.397,0.105-0.806,0.121-1.214l0.835,0.03c0.014-0.429,0.005-0.86-0.034-1.294c0-0.012-0.002-0.023-0.004-0.035
		l-0.833,0.076c-0.037-0.404-0.101-0.81-0.188-1.208l0.76-0.168c-0.375-0.318-0.732-0.658-1.068-1.017
		c-0.021-0.023-0.041-0.045-0.062-0.069c-1.093-1.188-1.956-2.588-2.52-4.126l-0.17,0.19c-0.306-0.272-0.629-0.527-0.964-0.759
		l0.464-0.668c-0.362-0.252-0.74-0.482-1.133-0.691l-0.379,0.721c-0.362-0.19-0.738-0.36-1.119-0.504l0.289-0.766
		c-0.41-0.156-0.834-0.291-1.265-0.398l-0.196,0.8c-0.395-0.098-0.801-0.17-1.207-0.218l0.096-0.817
		c-0.415-0.049-0.838-0.078-1.264-0.078c-0.02,0-0.041,0.002-0.062,0.002l0.005,0.826c-0.225,0.002-0.454,0.01-0.68,0.027
		c-0.184,0.014-0.363,0.033-0.543,0.056l-0.106-0.822c-0.443,0.057-0.878,0.142-1.304,0.25l0.207,0.803
		c-0.395,0.102-0.784,0.23-1.162,0.381l-0.309-0.776c-0.413,0.164-0.814,0.353-1.202,0.567l0.405,0.732
		c-0.355,0.197-0.701,0.418-1.027,0.658l-0.496-0.676c-0.356,0.262-0.697,0.546-1.02,0.852l0.579,0.609
		c-0.251,0.238-0.487,0.494-0.712,0.759l10.698,3.003l-2.634,0.861l5.248,2.923l-2.883,0.417l5.088,3.523l-11.17-2.576l2.504-0.726
		l-5.549-3.26l2.455-0.619l-4.695-3.717c-0.217,0.28-0.422,0.564-0.605,0.861l0.716,0.443c-0.213,0.346-0.406,0.708-0.573,1.078
		l-0.768-0.348c-0.184,0.406-0.341,0.82-0.47,1.245l0.806,0.244c-0.119,0.389-0.213,0.789-0.279,1.189l-0.83-0.138
		c-0.07,0.435-0.113,0.876-0.127,1.322l0.836,0.03c-0.006,0.116-0.008,0.232-0.008,0.349c0,0.29,0.014,0.584,0.041,0.874
		l-0.832,0.099c0.041,0.451,0.113,0.894,0.213,1.327l0.812-0.182c0.088,0.396,0.203,0.79,0.342,1.174l-0.777,0.281
		c0.152,0.417,0.328,0.824,0.531,1.216l0.732-0.375c0.186,0.362,0.396,0.715,0.625,1.053l-0.676,0.459
		c0.251,0.366,0.523,0.715,0.814,1.045l0.611-0.536c0.27,0.306,0.561,0.6,0.865,0.869l-0.541,0.607
		c0.331,0.295,0.678,0.568,1.043,0.82l0.463-0.669c0.335,0.232,0.689,0.445,1.05,0.635l-0.378,0.722
		c0.39,0.205,0.793,0.388,1.208,0.547l0.288-0.766c0.382,0.144,0.776,0.266,1.173,0.361l-0.194,0.801
		c0.428,0.104,0.863,0.179,1.308,0.232l0.093-0.817C19.283,33.148,19.667,33.171,20.047,33.171z M57.357,45.843
		c0-1.73-5.68-4.034-15.24-5.152c0.012,0.098,0.025,0.194,0.033,0.293c0.104,1.145,0.039,2.275-0.174,3.37l5.064-0.021l3.697,3.58
		L37.6,47.984c0.016-0.018,0.027-0.036,0.041-0.054c0.006-0.009,0.23-0.302,0.332-0.442c0.107-0.153,0.209-0.308,0.307-0.464
		l0.717,0.441c0.234-0.379,0.439-0.771,0.621-1.175l-0.766-0.347c0.166-0.367,0.311-0.753,0.43-1.143l0.805,0.244
		c0.066-0.226,0.268-1.091,0.299-1.296l-0.828-0.137c0.066-0.398,0.107-0.806,0.121-1.215l0.834,0.03
		c0.016-0.429,0.006-0.86-0.031-1.294c-0.002-0.012-0.004-0.023-0.004-0.035l-0.834,0.077c-0.037-0.403-0.102-0.812-0.189-1.21
		l0.812-0.179c-0.098-0.435-0.225-0.86-0.373-1.273l-0.779,0.279c-0.137-0.384-0.299-0.76-0.484-1.122l0.732-0.374
		c-0.201-0.394-0.43-0.773-0.68-1.137l-0.674,0.458c-0.23-0.338-0.482-0.664-0.75-0.97l0.609-0.536
		c-0.291-0.332-0.602-0.647-0.934-0.94l-0.539,0.605c-0.307-0.272-0.631-0.527-0.965-0.76l0.465-0.668
		c-0.361-0.253-0.742-0.481-1.135-0.69l-0.379,0.721c-0.361-0.189-0.736-0.361-1.119-0.505l0.293-0.764
		c-0.412-0.157-0.836-0.293-1.268-0.399l-0.195,0.8c-0.396-0.098-0.803-0.17-1.205-0.218l0.094-0.817
		c-0.417-0.049-0.838-0.078-1.265-0.078c-0.021,0-0.041,0.003-0.061,0.003l0.005,0.825c-0.225,0.001-0.455,0.011-0.68,0.027
		c-0.184,0.014-0.365,0.032-0.544,0.056l-0.106-0.822c-0.442,0.058-0.877,0.142-1.305,0.25l0.209,0.803
		c-0.395,0.103-0.785,0.229-1.163,0.379l-0.31-0.773c-0.412,0.162-0.812,0.352-1.201,0.566l0.406,0.731
		c-0.355,0.197-0.702,0.418-1.029,0.658l-0.496-0.675c-0.355,0.261-0.695,0.544-1.02,0.852l0.579,0.608
		c-0.294,0.278-0.573,0.581-0.829,0.896l-0.649-0.528c-0.282,0.346-0.543,0.705-0.775,1.08l0.716,0.443
		c-0.213,0.345-0.406,0.708-0.574,1.077l-0.766-0.348c-0.184,0.406-0.342,0.82-0.471,1.245l0.807,0.244
		c-0.119,0.389-0.213,0.789-0.279,1.189l-0.83-0.14c-0.071,0.436-0.113,0.877-0.129,1.323l0.836,0.03
		c-0.006,0.115-0.008,0.231-0.008,0.349c0,0.29,0.014,0.583,0.041,0.874l-0.831,0.098c0.042,0.452,0.114,0.894,0.213,1.326
		l0.812-0.181c0.045,0.194,0.094,0.389,0.15,0.581l0,0c0.057,0.2,0.121,0.397,0.191,0.593l-0.777,0.282
		c0.152,0.416,0.33,0.823,0.533,1.215l0.732-0.375c0.186,0.362,0.395,0.716,0.624,1.052l-0.677,0.46
		c0.066,0.095,0.22,0.299,0.228,0.31l-10.343-0.017l3.316-3.491l3.586-0.017c-0.123-0.53-0.215-1.069-0.266-1.623
		c-0.064-0.713-0.062-1.422-0.004-2.118c-2.707,0.32-5.205,0.75-7.4,1.277c-5.947,1.432-7.535,3.093-7.535,3.847
		c0,2.374,10.658,5.82,27.357,5.82c7.5,0,14.539-0.7,19.82-1.972C55.77,48.26,57.357,46.6,57.357,45.843z M25.951,47.802h-1.807
		l0.873-1.084c-0.695-0.646-1.205-1.231-1.532-1.765c-0.327-0.532-0.536-1.081-0.629-1.647s-0.09-1.097,0.011-1.59
		c0.1-0.493,0.304-1.025,0.613-1.595l3.361,2.034c-0.306,0.564-0.469,1.019-0.491,1.356c-0.021,0.341,0.078,0.732,0.298,1.178
		l2.127-2.644c-0.802-1.075-1.336-1.881-1.6-2.419c-0.266-0.536-0.373-1.153-0.325-1.85c0.048-0.695,0.334-1.369,0.855-2.017
		c0.715-0.89,1.628-1.387,2.74-1.493c1.11-0.105,2.319,0.294,3.622,1.197l0.596-0.741l1.111,0.861l-0.596,0.742
		c1.082,0.952,1.738,1.893,1.973,2.816c0.232,0.926,0.121,1.857-0.34,2.799l-3.189-1.756c0.143-0.466,0.213-0.811,0.207-1.036
		c-0.002-0.227-0.082-0.51-0.232-0.856l-1.74,2.165c1.219,1.602,1.906,2.83,2.062,3.68c0.201,1.136-0.072,2.168-0.818,3.096
		c-0.172,0.213-0.361,0.398-0.559,0.567h-6.084c-0.108-0.071-0.217-0.142-0.329-0.221L25.951,47.802z M30.619,38.387
		c0,0.263,0.113,0.573,0.35,0.932l1.545-1.922c-0.408-0.147-0.74-0.193-0.992-0.136c-0.25,0.057-0.463,0.189-0.629,0.4
		C30.715,37.882,30.623,38.123,30.619,38.387z M27.701,45.626c0.508,0.241,0.949,0.329,1.326,0.269
		c0.376-0.063,0.67-0.229,0.889-0.499c0.189-0.235,0.279-0.519,0.268-0.847c-0.012-0.329-0.195-0.77-0.553-1.323L27.701,45.626z"/>
</g>
<g id="Layer_2" display="none">
	<circle display="inline" fill="#A6A8AB" cx="48.436" cy="85.59" r="33.833"/>
</g>
</svg>
