<?xml version="1.0" encoding="utf-8"?>
<!-- Generator: Adobe Illustrator 16.0.0, SVG Export Plug-In . SVG Version: 6.00 Build 0)  -->
<!DOCTYPE svg PUBLIC "-//W3C//DTD SVG 1.1//EN" "http://www.w3.org/Graphics/SVG/1.1/DTD/svg11.dtd">
<svg version="1.1" id="Capa_1" xmlns="http://www.w3.org/2000/svg" xmlns:xlink="http://www.w3.org/1999/xlink" x="0px" y="0px"
	 width="64px" height="33px" viewBox="32.663 45.42 64 33" enable-background="new 32.663 45.42 64 33" xml:space="preserve">
<g id="Chair" display="none">
	<path display="inline" fill="#010101" d="M40.81,54.22h-2.028c0-13.472,11.502-24.431,25.642-24.431v2.028
		C51.403,31.817,40.81,41.867,40.81,54.22z"/>
	<path display="inline" fill="#010101" d="M90.616,54.22h-2.029c0-12.353-10.84-22.403-24.163-22.403v-2.028
		C78.866,29.789,90.616,40.749,90.616,54.22z"/>
	<path display="inline" fill="#010101" d="M89.6,55.234H39.796c-0.56,0-1.014-0.454-1.014-1.014c0-0.56,0.454-1.014,1.014-1.014
		H89.6c0.561,0,1.016,0.454,1.016,1.014C90.616,54.78,90.161,55.234,89.6,55.234z"/>
	<rect x="63.814" y="53.863" display="inline" fill="#010101" width="2.028" height="21.862"/>
	<rect x="63.814" y="83.378" display="inline" fill="#010101" width="2.028" height="4.386"/>
	<path display="inline" fill="#010101" d="M93.491,81.04H50.503c-0.374,0-0.735-0.14-1.011-0.392L34.651,67.107l2.022-2.217
		L51.085,78.04h42.406V81.04z"/>
	<path display="inline" fill="#010101" d="M36.557,87.781c-0.168,0-0.339-0.042-0.496-0.131c-0.488-0.274-0.662-0.894-0.387-1.381
		l7.041-12.525c0.274-0.488,0.892-0.663,1.381-0.387c0.488,0.273,0.662,0.893,0.387,1.381l-7.041,12.525
		C37.256,87.595,36.911,87.781,36.557,87.781z"/>
	<path display="inline" fill="#010101" d="M92.711,87.781c-0.392,0-0.764-0.227-0.931-0.606l-3.239-7.362
		c-0.226-0.514,0.008-1.111,0.521-1.338c0.516-0.228,1.111,0.01,1.337,0.521l3.239,7.363c0.227,0.513-0.008,1.11-0.521,1.336
		C92.986,87.754,92.847,87.781,92.711,87.781z"/>
	<path display="inline" fill="#010101" d="M50.335,87.781c-0.148,0-0.299-0.032-0.441-0.102c-0.504-0.244-0.715-0.852-0.471-1.355
		l2.943-6.078c0.245-0.504,0.853-0.717,1.355-0.471c0.504,0.244,0.715,0.851,0.471,1.354l-2.943,6.078
		C51.073,87.57,50.711,87.781,50.335,87.781z"/>
</g>
<g id="Apartment" display="none">
	<path display="inline" fill="#010101" d="M60.249,88.941L60.249,88.941c-1.345,0-2.44-1.094-2.44-2.439v-8.566
		c0-0.242-0.204-0.446-0.445-0.447l-21.976-0.119c-1.339-0.008-2.436-1.104-2.443-2.442l-0.219-38.509
		c-0.003-0.651,0.248-1.265,0.708-1.728s1.072-0.718,1.723-0.718h6.921c0.238,0,0.44-0.202,0.44-0.44v-2.054
		c0-1.345,1.095-2.44,2.44-2.44h48.125c1.347,0,2.44,1.095,2.44,2.44V86.5c0,1.346-1.095,2.439-2.44,2.439L60.249,88.941z
		 M44.959,31.037c-0.238,0-0.44,0.202-0.44,0.44v2.054c0,1.345-1.095,2.44-2.44,2.44h-6.921c-0.155,0-0.258,0.08-0.305,0.128
		c-0.048,0.048-0.127,0.151-0.126,0.307l0.219,38.508c0.001,0.245,0.209,0.453,0.453,0.454l21.976,0.118
		c1.342,0.008,2.435,1.104,2.435,2.449v8.565c0,0.238,0.202,0.44,0.44,0.44l32.836-0.002c0.238,0,0.439-0.203,0.439-0.44V31.477
		c0-0.238-0.201-0.44-0.439-0.44H44.959z"/>
	<rect x="72" y="38.383" display="inline" fill="#010101" width="22.523" height="2"/>
	<rect x="71.956" y="38.368" display="inline" fill="#010101" width="2" height="19.92"/>
	<rect x="72.956" y="57.288" display="inline" fill="#010101" width="3.438" height="2"/>
	<rect x="81.545" y="57.288" display="inline" fill="#010101" width="12.979" height="2"/>
	
		<rect x="69.211" y="57.151" transform="matrix(-0.7072 -0.707 0.707 -0.7072 76.719 153.8323)" display="inline" fill="#010101" width="2.001" height="7.76"/>
	<rect x="57.809" y="56.966" display="inline" fill="#010101" width="2" height="23.408"/>
	<rect x="57.809" y="46.39" display="inline" fill="#010101" width="2" height="4.697"/>
	<rect x="43.519" y="49.091" display="inline" fill="#010101" width="16.263" height="2"/>
	<rect x="42.519" y="33.665" display="inline" fill="#010101" width="2" height="25"/>
	<rect x="33.718" y="56.759" display="inline" fill="#010101" width="10.767" height="2"/>
	<rect x="34.471" y="38.042" display="inline" fill="#010101" width="9.261" height="2"/>
	<rect x="34.471" y="41.517" display="inline" fill="#010101" width="9.261" height="2"/>
	<rect x="34.471" y="49.138" display="inline" fill="#010101" width="9.261" height="2"/>
	<rect x="34.471" y="45.328" display="inline" fill="#010101" width="9.261" height="2"/>
	<rect x="34.471" y="52.949" display="inline" fill="#010101" width="9.261" height="2"/>
</g>
<g>
	<g>
		<path fill="none" stroke="#FFFFFF" stroke-width="2" stroke-miterlimit="10" d="M81.918,71.306c0,0.792-0.648,1.439-1.439,1.439
			H48.846c-0.792,0-1.44-0.647-1.44-1.439v-23.2c0-0.792,0.648-1.44,1.44-1.44h31.633c0.791,0,1.439,0.648,1.439,1.44V71.306z"/>
	</g>
	<g>
		<path fill="none" stroke="#FFFFFF" stroke-width="2" stroke-miterlimit="10" d="M95.321,71.306c0,0.792-0.648,1.439-1.439,1.439
			h-5.516c-0.793,0-1.441-0.647-1.441-1.439V52.814c0-0.792,0.648-1.44,1.441-1.44h5.516c0.791,0,1.439,0.648,1.439,1.44V71.306z"/>
	</g>
	<ellipse fill="#FFFFFF" cx="91.124" cy="68.982" rx="2.092" ry="2.282"/>
	<ellipse fill="#FFFFFF" cx="91.124" cy="63.235" rx="1.078" ry="1.176"/>
	<g>
		<path fill="none" stroke="#FFFFFF" stroke-width="2" stroke-miterlimit="10" d="M42.401,71.305c0,0.792-0.648,1.44-1.44,1.44
			h-5.516c-0.792,0-1.44-0.648-1.44-1.44V52.813c0-0.792,0.648-1.44,1.44-1.44h5.516c0.792,0,1.44,0.648,1.44,1.44V71.305z"/>
	</g>
	<ellipse fill="#FFFFFF" cx="38.203" cy="68.981" rx="2.092" ry="2.282"/>
	<ellipse fill="#FFFFFF" cx="38.205" cy="63.235" rx="1.078" ry="1.176"/>
	<line fill="none" stroke="#FFFFFF" stroke-width="2" stroke-miterlimit="10" x1="49.655" y1="77.175" x2="79.67" y2="77.175"/>
	<line fill="none" stroke="#FFFFFF" stroke-width="2" stroke-miterlimit="10" x1="64.663" y1="72.745" x2="64.663" y2="77.175"/>
</g>
</svg>
