<?xml version="1.0" encoding="utf-8"?>
<!-- Generator: Adobe Illustrator 16.0.0, SVG Export Plug-In . SVG Version: 6.00 Build 0)  -->
<!DOCTYPE svg PUBLIC "-//W3C//DTD SVG 1.1//EN" "http://www.w3.org/Graphics/SVG/1.1/DTD/svg11.dtd">
<svg version="1.1" id="Layer_1" xmlns:sketch="http://www.bohemiancoding.com/sketch/ns"
	 xmlns="http://www.w3.org/2000/svg" xmlns:xlink="http://www.w3.org/1999/xlink" x="0px" y="0px" width="60px" height="56px"
	 viewBox="0 0 60 56" enable-background="new 0 0 60 56" xml:space="preserve">
<path fill="#474747" d="M31.704,53.816c-0.181,1.137-1.299,2.058-2.5,2.058H15.352c-1.2,0-2.027-0.921-1.846-2.058l1.956-12.349
	c0.181-1.138,1.299-2.059,2.498-2.059h13.854c1.201,0,2.027,0.921,1.848,2.059L31.704,53.816z M34.321,35.863
	c0.231-1.525,0.724-2.766,1.465-3.681c0.54-0.669,1.933-1.913,5.486-4.04c4.432-2.633,7.378-4.824,9.005-6.701
	c1.669-1.924,2.678-3.969,2.996-6.079c0.764-5.059-1.331-9.145-6.224-12.144C43.58,1.083,38.752,0,32.699,0
	c-7.744,0-13.833,1.543-18.098,4.586c-4.292,3.062-7.139,7.161-8.463,12.187l-0.343,1.304l17.722,1.849l0.266-0.935
	c0.669-2.349,1.615-3.992,2.81-4.883c1.215-0.905,2.618-1.345,4.289-1.345c1.457,0,2.513,0.253,3.057,0.732
	c0.293,0.261,0.666,0.733,0.502,1.827c-0.06,0.394-0.504,1.498-3.35,3.245c-4.599,2.865-7.513,4.824-8.908,5.988
	c-1.436,1.199-2.6,2.546-3.457,4.003c-0.868,1.472-1.484,3.387-1.831,5.688L16.5,36.848h17.674L34.321,35.863z M20.715,29.729
	c0.723-1.229,1.714-2.373,2.946-3.4c1.294-1.079,4.205-3.032,8.642-5.799c2.733-1.676,4.179-3.268,4.419-4.864
	c0.308-2.038-0.514-3.248-1.258-3.905c-0.999-0.881-2.499-1.31-4.585-1.31c-2.156,0-4.063,0.607-5.669,1.804
	c-1.431,1.065-2.559,2.803-3.362,5.172L8.761,16.062c1.308-3.901,3.719-7.124,7.183-9.594c3.866-2.759,9.503-4.157,16.756-4.157
	c5.618,0,10.041,0.968,13.142,2.877c4.083,2.504,5.769,5.72,5.148,9.831c-0.253,1.669-1.079,3.32-2.456,4.91
	c-1.444,1.662-4.284,3.758-8.443,6.231c-3.134,1.873-5.128,3.368-6.101,4.568c-0.828,1.024-1.421,2.303-1.768,3.811H19.187
	C19.491,32.554,20.004,30.937,20.715,29.729z M21.713,41.922h-3.118l-1.264,7.981h3.117L21.713,41.922z M30.108,42.553H26.99
	l-1.075,6.793h3.118L30.108,42.553z M20.201,53.576l4.4-0.01c0,0,0.4-3.29-1.812-3.29C20.563,50.276,20.201,53.576,20.201,53.576z"
	/>
</svg>
