<?xml version="1.0" encoding="utf-8"?>
<!-- Generator: Adobe Illustrator 16.0.0, SVG Export Plug-In . SVG Version: 6.00 Build 0)  -->
<!DOCTYPE svg PUBLIC "-//W3C//DTD SVG 1.1//EN" "http://www.w3.org/Graphics/SVG/1.1/DTD/svg11.dtd">
<svg version="1.1" id="Capa_1" xmlns="http://www.w3.org/2000/svg" xmlns:xlink="http://www.w3.org/1999/xlink" x="0px" y="0px"
	 width="60px" height="59px" viewBox="34.663 32.42 60 59" enable-background="new 34.663 32.42 60 59" xml:space="preserve">
<path fill="#FFFFFF" d="M41.285,57.354h-2.028c0-13.472,11.502-24.431,25.642-24.431v2.028
	C51.877,34.952,41.285,45.002,41.285,57.354z"/>
<path fill="#FFFFFF" d="M91.09,57.354h-2.029c0-12.353-10.84-22.403-24.163-22.403v-2.028C79.34,32.924,91.09,43.884,91.09,57.354z"
	/>
<path fill="#FFFFFF" d="M90.075,58.369H40.27c-0.56,0-1.014-0.454-1.014-1.014c0-0.56,0.454-1.014,1.014-1.014h49.805
	c0.561,0,1.016,0.454,1.016,1.014C91.09,57.915,90.635,58.369,90.075,58.369z"/>
<rect x="64.289" y="56.998" fill="#FFFFFF" width="2.028" height="21.862"/>
<rect x="64.289" y="86.513" fill="#FFFFFF" width="2.028" height="4.386"/>
<path fill="#FFFFFF" d="M93.965,84.175H50.977c-0.374,0-0.734-0.14-1.011-0.392L35.125,70.242l2.021-2.217l14.412,13.149h42.406
	V84.175z"/>
<path fill="#FFFFFF" d="M37.032,90.916c-0.168,0-0.34-0.042-0.496-0.131c-0.488-0.274-0.662-0.894-0.388-1.381l7.041-12.525
	c0.274-0.488,0.893-0.663,1.382-0.387c0.487,0.273,0.661,0.893,0.387,1.381l-7.041,12.525C37.73,90.729,37.385,90.916,37.032,90.916
	z"/>
<path fill="#FFFFFF" d="M93.186,90.916c-0.392,0-0.764-0.227-0.931-0.606l-3.239-7.362c-0.226-0.514,0.008-1.111,0.521-1.338
	c0.516-0.228,1.111,0.01,1.337,0.521l3.239,7.363c0.227,0.513-0.008,1.11-0.521,1.336C93.46,90.889,93.322,90.916,93.186,90.916z"/>
<path fill="#FFFFFF" d="M50.809,90.916c-0.147,0-0.299-0.032-0.44-0.102c-0.504-0.244-0.715-0.852-0.472-1.355l2.943-6.078
	c0.245-0.504,0.854-0.717,1.355-0.471c0.504,0.244,0.715,0.851,0.471,1.354l-2.943,6.078C51.547,90.705,51.185,90.916,50.809,90.916
	z"/>
<g id="Apartment" display="none">
	<path display="inline" fill="#010101" d="M60.249,88.941L60.249,88.941c-1.345,0-2.44-1.094-2.44-2.439v-8.566
		c0-0.242-0.204-0.446-0.445-0.447l-21.976-0.119c-1.339-0.008-2.436-1.104-2.443-2.442l-0.219-38.509
		c-0.003-0.651,0.248-1.265,0.708-1.728s1.072-0.718,1.723-0.718h6.921c0.238,0,0.44-0.202,0.44-0.44v-2.054
		c0-1.345,1.095-2.44,2.44-2.44h48.125c1.347,0,2.44,1.095,2.44,2.44V86.5c0,1.346-1.095,2.439-2.44,2.439L60.249,88.941z
		 M44.959,31.037c-0.238,0-0.44,0.202-0.44,0.44v2.054c0,1.345-1.095,2.44-2.44,2.44h-6.921c-0.155,0-0.258,0.08-0.305,0.128
		c-0.048,0.048-0.127,0.151-0.126,0.307l0.219,38.508c0.001,0.245,0.209,0.453,0.453,0.454l21.976,0.118
		c1.342,0.008,2.435,1.104,2.435,2.449v8.565c0,0.238,0.202,0.44,0.44,0.44l32.836-0.002c0.238,0,0.439-0.203,0.439-0.44V31.477
		c0-0.238-0.201-0.44-0.439-0.44H44.959z"/>
	<rect x="72" y="38.383" display="inline" fill="#010101" width="22.523" height="2"/>
	<rect x="71.956" y="38.368" display="inline" fill="#010101" width="2" height="19.92"/>
	<rect x="72.956" y="57.288" display="inline" fill="#010101" width="3.438" height="2"/>
	<rect x="81.545" y="57.288" display="inline" fill="#010101" width="12.979" height="2"/>
	
		<rect x="69.211" y="57.151" transform="matrix(-0.7072 -0.707 0.707 -0.7072 76.719 153.8323)" display="inline" fill="#010101" width="2.001" height="7.76"/>
	<rect x="57.809" y="56.966" display="inline" fill="#010101" width="2" height="23.408"/>
	<rect x="57.809" y="46.39" display="inline" fill="#010101" width="2" height="4.697"/>
	<rect x="43.519" y="49.091" display="inline" fill="#010101" width="16.263" height="2"/>
	<rect x="42.519" y="33.665" display="inline" fill="#010101" width="2" height="25"/>
	<rect x="33.718" y="56.759" display="inline" fill="#010101" width="10.767" height="2"/>
	<rect x="34.471" y="38.042" display="inline" fill="#010101" width="9.261" height="2"/>
	<rect x="34.471" y="41.517" display="inline" fill="#010101" width="9.261" height="2"/>
	<rect x="34.471" y="49.138" display="inline" fill="#010101" width="9.261" height="2"/>
	<rect x="34.471" y="45.328" display="inline" fill="#010101" width="9.261" height="2"/>
	<rect x="34.471" y="52.949" display="inline" fill="#010101" width="9.261" height="2"/>
</g>
<g id="TV" display="none">
	<g display="inline">
		<path fill="none" stroke="#010101" stroke-width="2" stroke-miterlimit="10" d="M81.377,71.324c0,0.792-0.647,1.439-1.439,1.439
			H48.305c-0.792,0-1.44-0.647-1.44-1.439v-23.2c0-0.792,0.648-1.44,1.44-1.44h31.633c0.792,0,1.439,0.648,1.439,1.44V71.324z"/>
	</g>
	<g display="inline">
		<path fill="none" stroke="#010101" stroke-width="2" stroke-miterlimit="10" d="M94.78,71.324c0,0.792-0.648,1.439-1.439,1.439
			h-5.516c-0.793,0-1.441-0.647-1.441-1.439V52.833c0-0.792,0.648-1.44,1.441-1.44h5.516c0.791,0,1.439,0.648,1.439,1.44V71.324z"/>
	</g>
	<ellipse display="inline" fill="#010101" cx="90.583" cy="69.001" rx="2.092" ry="2.282"/>
	<ellipse display="inline" fill="#010101" cx="90.583" cy="63.254" rx="1.078" ry="1.176"/>
	<g display="inline">
		<path fill="none" stroke="#010101" stroke-width="2" stroke-miterlimit="10" d="M41.86,71.323c0,0.792-0.648,1.44-1.44,1.44
			h-5.516c-0.792,0-1.44-0.648-1.44-1.44V52.832c0-0.792,0.648-1.44,1.44-1.44h5.516c0.792,0,1.44,0.648,1.44,1.44V71.323z"/>
	</g>
	<ellipse display="inline" fill="#010101" cx="37.662" cy="69" rx="2.092" ry="2.282"/>
	<ellipse display="inline" fill="#010101" cx="37.664" cy="63.253" rx="1.078" ry="1.176"/>
	
		<line display="inline" fill="none" stroke="#010101" stroke-width="2" stroke-miterlimit="10" x1="49.114" y1="77.193" x2="79.129" y2="77.193"/>
	
		<line display="inline" fill="none" stroke="#010101" stroke-width="2" stroke-miterlimit="10" x1="64.122" y1="72.764" x2="64.122" y2="77.193"/>
</g>
</svg>
