<svg width="60" height="56" viewBox="0 0 60 56" xmlns="http://www.w3.org/2000/svg" xmlns:sketch="http://www.bohemiancoding.com/sketch/ns"><title>presets</title><desc>Created with Sketch.</desc><g sketch:type="MSShapeGroup" fill="#474747"><path d="M5.403 1.995c0-.739.597-1.338 1.333-1.338s1.333.599 1.333 1.338v30.685c0 .739-.597 1.338-1.333 1.338s-1.333-.599-1.333-1.338v-30.685zm0 40.719c0-.739.597-1.338 1.333-1.338s1.333.599 1.333 1.338v11.481c0 .739-.597 1.339-1.333 1.339s-1.333-.599-1.333-1.339v-11.481zM28.667 1.995c0-.739.597-1.338 1.333-1.338s1.333.599 1.333 1.338v11.482c0 .739-.597 1.338-1.333 1.338s-1.333-.599-1.333-1.338v-11.482zm0 21.516c0-.739.597-1.338 1.333-1.338s1.333.599 1.333 1.338v30.684c0 .739-.597 1.339-1.333 1.339s-1.333-.599-1.333-1.339v-30.684zM51.93 1.995c0-.739.597-1.338 1.333-1.338s1.333.599 1.333 1.338v21.083c0 .739-.597 1.338-1.333 1.338s-1.333-.599-1.333-1.338v-21.083zm0 31.117c0-.739.597-1.338 1.333-1.338s1.333.599 1.333 1.338v21.083c0 .739-.597 1.339-1.333 1.339s-1.333-.599-1.333-1.339v-21.083zM30 12.138c1.749 0 3.332.711 4.479 1.861 1.146 1.151 1.855 2.739 1.855 4.494 0 1.754-.709 3.343-1.855 4.493-1.147 1.151-2.73 1.862-4.479 1.862s-3.332-.711-4.478-1.862c-1.147-1.15-1.855-2.739-1.855-4.493 0-1.755.709-3.343 1.855-4.494 1.146-1.149 2.729-1.861 4.478-1.861zm2.593 3.753c-.663-.666-1.58-1.077-2.593-1.077s-1.93.411-2.593 1.077c-.663.666-1.073 1.585-1.073 2.602 0 1.016.41 1.937 1.073 2.602.663.665 1.579 1.077 2.593 1.077 1.013 0 1.93-.412 2.593-1.077.663-.666 1.073-1.586 1.073-2.602 0-1.017-.41-1.937-1.073-2.602zM6.737 31.342c1.749 0 3.332.711 4.478 1.862 1.147 1.15 1.855 2.739 1.855 4.493 0 1.755-.709 3.343-1.855 4.493-1.146 1.151-2.729 1.862-4.478 1.862-1.749 0-3.332-.711-4.478-1.862-1.147-1.15-1.855-2.739-1.855-4.493 0-1.755.709-3.343 1.855-4.493 1.146-1.151 2.729-1.862 4.478-1.862zm2.593 3.753c-.663-.666-1.58-1.077-2.593-1.077s-1.93.411-2.593 1.077c-.663.666-1.073 1.586-1.073 2.602 0 1.017.41 1.937 1.073 2.602.663.666 1.58 1.077 2.593 1.077s1.93-.411 2.593-1.077c.663-.666 1.073-1.585 1.073-2.602 0-1.016-.41-1.937-1.073-2.602zM53.263 21.74c1.749 0 3.332.711 4.479 1.861 1.146 1.151 1.855 2.739 1.855 4.494s-.709 3.343-1.855 4.494c-1.147 1.15-2.73 1.861-4.479 1.861-1.748 0-3.332-.711-4.478-1.861-1.147-1.151-1.855-2.739-1.855-4.494s.709-3.343 1.855-4.494c1.145-1.15 2.729-1.861 4.478-1.861zm2.593 3.753c-.663-.666-1.58-1.077-2.593-1.077s-1.93.411-2.593 1.077c-.663.666-1.074 1.585-1.074 2.602s.411 1.937 1.074 2.602c.663.666 1.58 1.077 2.593 1.077s1.93-.411 2.593-1.077c.663-.666 1.073-1.585 1.073-2.602s-.41-1.937-1.073-2.602z"/></g></svg>